<svg xmlns="http://www.w3.org/2000/svg" viewBox="0 0 64 64"><title>Layer</title><g id="Layer"><path d="M33,16V4a1.0029,1.0029,0,0,0-1-1H7A1.0029,1.0029,0,0,0,6,4V32a1.0029,1.0029,0,0,0,1,1H17V18a2.0059,2.0059,0,0,1,2-2Z" id="id_101" style="fill: rgb(20, 20, 166);"></path><path d="M44,47a1.0029,1.0029,0,0,0,1-1V18a1.0029,1.0029,0,0,0-1-1H19a1.0029,1.0029,0,0,0-1,1V46a1.0029,1.0029,0,0,0,1,1H44Z" id="id_102" style="fill: rgb(16, 16, 163);"></path><polygon points="54.59 55 52 57.59 52 55 54.59 55" id="id_103"></polygon><path d="M58,32V53H51a1.0029,1.0029,0,0,0-1,1v7H32a1.0029,1.0029,0,0,1-1-1V48H44a2.0059,2.0059,0,0,0,2-2V31H57A1.0029,1.0029,0,0,1,58,32Z" id="id_104" style="fill: rgb(16, 16, 161);"></path></g></svg>