<svg version="1.1" id="Layer_1" xmlns="http://www.w3.org/2000/svg" xmlns:xlink="http://www.w3.org/1999/xlink" x="0px" y="0px" viewBox="0 0 64 64" enable-background="new 0 0 64 64" xml:space="preserve">
<path fill="#ffffff" d="M32.9,18.4l22.8,7.6l0.6-1.9l-20.2-6.7l8-1.3l-0.3-2l-11.1,1.8L30,4.8L28,5.2l2.3,9.3L16.6,4.2l-1.2,1.6
	l12.8,9.6l-3.3-0.5l-3.8-0.6l0,0l-2-0.3l-0.3,2l5.7,0.9l2.3,0.4v0l2.8,0.4L4.3,40.3L5,41l-0.1,1l28.8,2.8L22.3,55.3l1.4,1.5
	l12.1-11.2l9.4,14l1.7-1.1l-9.6-14.4l9.5-11.4l-1.5-1.3L36.4,42L32,29.9L32.9,18.4z M32.1,42.6L7.4,40.2l23.4-20.8L30,29.9l1,0.1
	l-0.9,0.3l4,11.2l-9.5-6.3l-1.1,1.7L32.1,42.6z" id="id_101"></path>
<path fill="#ffffff" d="M36.3,14.5c0,0.1,0.1,0.1,0.1,0.2C36.4,14.6,36.3,14.5,36.3,14.5z" id="id_102"></path>
<path fill="#ffffff" d="M27.6,14.6c0,0,0-0.1,0.1-0.1C27.7,14.5,27.7,14.6,27.6,14.6z" id="id_103"></path>
<path fill="#1414a8" d="M36.7,15.3c0,0,0,0.1,0,0.1C36.7,15.4,36.7,15.3,36.7,15.3z" id="id_104"></path>
<path fill="#1417a8" d="M27.2,15.7c0-0.1,0-0.1,0-0.2C27.2,15.6,27.2,15.6,27.2,15.7z" id="id_105"></path>
<path fill="#ffffff" d="M32,12c0.3,0,0.6,0,1,0.1C32.6,12,32.3,12,32,12z" id="id_106"></path>
<path fill="#ffffff" d="M31.2,12.1c0.3,0,0.5-0.1,0.8-0.1C31.7,12,31.5,12,31.2,12.1z" id="id_107"></path>
<path fill="#ffffff" d="M33.3,12.2c0.2,0.1,0.4,0.1,0.6,0.2C33.7,12.3,33.5,12.2,33.3,12.2z" id="id_108"></path>
<path fill="#ffffff" d="M35.7,13.7c0.1,0.1,0.1,0.2,0.2,0.2C35.9,13.9,35.8,13.8,35.7,13.7z" id="id_109"></path>
<path fill="#0d0da3" d="M34.2,12.5c0.1,0.1,0.3,0.1,0.4,0.2C34.5,12.7,34.4,12.6,34.2,12.5z" id="id_110"></path>
<path fill="#0d0da1" d="M35,13.1c0.1,0.1,0.2,0.2,0.3,0.2C35.2,13.2,35.1,13.1,35,13.1z" id="id_111"></path>
<circle fill="#09099c" cx="31" cy="30" r="2" id="id_112"></circle>
<path fill="#0f0fa3" d="M48,32c0-1.1-0.9-2-2-2s-2,0.9-2,2c0,0.6,0.3,1.2,0.7,1.5l0,0l0,0c0.3,0.3,0.8,0.5,1.3,0.5
	C47.1,34,48,33.1,48,32z" id="id_113"></path>
<path fill="#0f0fa1" d="M44,17c1.1,0,2-0.9,2-2c0-1.1-0.9-2-2-2s-2,0.9-2,2c0,0.1,0,0.2,0,0.3l0,0l0,0C42.2,16.3,43,17,44,17z" id="id_114"></path>
<path fill="#0d0da3" d="M5,39c-1.1,0-2,0.9-2,2c0,1.1,0.9,2,2,2s2-0.9,2-2c0-0.5-0.2-1-0.5-1.3l0,0l0,0C6.1,39.3,5.6,39,5,39z" id="id_115"></path>
<path fill="#1417a8" d="M36,49c2.8,0,5-2.2,5-5c0-1.5-0.7-2.9-1.8-3.8l0,0l0,0c-0.9-0.7-2-1.2-3.2-1.2c-2.8,0-5,2.2-5,5
	S33.2,49,36,49z" id="id_116"></path>
<circle fill="#0b0ba1" cx="24" cy="36" r="2" id="id_117"></circle>
<path fill="#1515ab" d="M19,13c-1.1,0-2,0.9-2,2c0,1.1,0.9,2,2,2c1,0,1.8-0.7,2-1.7l0,0l0,0c0-0.1,0-0.2,0-0.3
	C21,13.9,20.1,13,19,13z" id="id_118"></path>
<path fill="#1414a8" d="M28,14c-0.1,0.1-0.2,0.3-0.3,0.5C27.8,14.3,27.9,14.2,28,14z" id="id_119"></path>
<path fill="#1515ab" d="M27.2,15.5c0.1-0.3,0.2-0.6,0.4-0.9C27.5,14.9,27.3,15.2,27.2,15.5z" id="id_120"></path>
<path fill="#1212a8" d="M36.7,15.4c0.1,0.2,0.2,0.5,0.2,0.8C36.9,15.9,36.8,15.7,36.7,15.4z" id="id_121"></path>
<path fill="#0d0da6" d="M36.4,14.7c0.1,0.2,0.2,0.4,0.3,0.6C36.6,15.1,36.5,14.9,36.4,14.7z" id="id_122"></path>
<path fill="#1010a8" d="M35.9,13.9c0.1,0.2,0.2,0.3,0.4,0.5C36.2,14.3,36.1,14.1,35.9,13.9z" id="id_123"></path>
<path fill="#1010a6" d="M33.8,12.4c0.1,0.1,0.3,0.1,0.4,0.2C34.1,12.5,34,12.4,33.8,12.4z" id="id_124"></path>
<path fill="#0d0da3" d="M34.6,12.8c0.1,0.1,0.3,0.2,0.4,0.3C34.9,13,34.8,12.9,34.6,12.8z" id="id_125"></path>
<path fill="#0f0fa3" d="M33,12.1c0.1,0,0.2,0.1,0.3,0.1C33.2,12.2,33.1,12.1,33,12.1z" id="id_126"></path>
<path fill="#0c0c9e" d="M31.2,12.1c-0.1,0-0.3,0.1-0.4,0.1l0,0C30.9,12.1,31.1,12.1,31.2,12.1z" id="id_127"></path>
<path fill="#0d0da3" d="M27.2,15.7c-0.1,0.2-0.1,0.4-0.1,0.6l0,0C27.1,16.1,27.1,15.9,27.2,15.7z" id="id_128"></path>
<path fill="#0c0c9e" d="M27.6,14.6c-0.2,0.3-0.3,0.6-0.4,0.9c0,0.1,0,0.1,0,0.2c-0.1,0.2-0.1,0.4-0.1,0.6l0,0c0,0.2-0.1,0.5-0.1,0.8
	c0,2.8,2.2,5,5,5c2.2,0,4.1-1.4,4.7-3.4h0h0c0.2-0.5,0.3-1,0.3-1.6c0-0.3,0-0.6-0.1-0.8c0-0.3-0.1-0.5-0.2-0.8c0,0,0-0.1,0-0.1
	c-0.1-0.2-0.2-0.4-0.3-0.6c0-0.1-0.1-0.1-0.1-0.2c-0.1-0.2-0.2-0.4-0.4-0.5c-0.1-0.1-0.1-0.2-0.2-0.2c-0.1-0.1-0.3-0.3-0.4-0.4
	c-0.1-0.1-0.2-0.2-0.3-0.2c-0.1-0.1-0.3-0.2-0.4-0.3c-0.1-0.1-0.3-0.2-0.4-0.2c-0.1-0.1-0.3-0.1-0.4-0.2c-0.2-0.1-0.4-0.1-0.6-0.2
	c-0.1,0-0.2-0.1-0.3-0.1C32.6,12,32.3,12,32,12c-0.3,0-0.5,0-0.8,0.1c-0.1,0-0.3,0.1-0.4,0.1l0,0c-1.1,0.3-2.1,0.9-2.8,1.8
	c-0.1,0.1-0.2,0.3-0.3,0.5C27.7,14.5,27.7,14.6,27.6,14.6z" id="id_129"></path>
<path fill="#0d0da3" d="M35.3,13.3c0.1,0.1,0.3,0.3,0.4,0.4C35.6,13.6,35.5,13.4,35.3,13.3z" id="id_130"></path>
<path fill="#0b0ba1" d="M16,3c-1.1,0-2,0.9-2,2c0,1.1,0.9,2,2,2c0.7,0,1.2-0.3,1.6-0.8l0,0l0,0C17.8,5.9,18,5.5,18,5
	C18,3.9,17.1,3,16,3z" id="id_131"></path>
<circle fill="#0c0ca3" cx="29" cy="5" r="2" id="id_132"></circle>
<circle fill="#09099e" cx="46" cy="59" r="2" id="id_133"></circle>
<circle fill="#3F4F8C" cx="56" cy="25" r="2" id="id_134"></circle>
<path fill="#0c0c9e" d="M23,54c-1.1,0-2,0.9-2,2c0,1.1,0.9,2,2,2s2-0.9,2-2c0-0.5-0.2-1-0.5-1.4l0,0l0,0C24.1,54.3,23.6,54,23,54z" id="id_135"></path>
</svg>