<svg id="Layer_1" data-name="Layer 1" xmlns="http://www.w3.org/2000/svg" viewBox="0 0 64 64"><path d="M4,43.5a2.5,2.5,0,0,0,1.731-4.3l5.418-14.717a2.476,2.476,0,0,0,1.479-.6L18.07,26.47l.86-1.8-5.438-2.586c0-.028.008-.055.008-.084a2.5,2.5,0,1,0-4.231,1.8L3.846,38.516A2.494,2.494,0,0,0,4,43.5Z" id="id_101" style="fill: rgb(20, 22, 161);"></path><path d="M57.5,23a2.489,2.489,0,0,0,.769,1.8L52.851,39.515a2.476,2.476,0,0,0-1.479.6L45.93,37.53l-.86,1.8,5.438,2.586c0,.028-.008.055-.008.084a2.5,2.5,0,1,0,4.231-1.8l5.423-14.718A2.495,2.495,0,1,0,57.5,23Z" id="id_102" style="fill: rgb(20, 23, 168);"></path><path d="M8.016,12.367l1.548,1.266a28.988,28.988,0,0,1,41.13-3.8l-2.432,2.432,7.66,1.352L54.57,5.957l-2.459,2.46a30.981,30.981,0,0,0-44.095,3.95Z" id="id_103" style="fill: rgb(20, 23, 168);"></path><path d="M55.984,51.633l-1.548-1.266a28.988,28.988,0,0,1-41.13,3.8l2.432-2.432-7.66-1.352,1.352,7.66,2.459-2.46a30.981,30.981,0,0,0,44.1-3.95Z" id="id_104" style="fill: rgb(18, 18, 166);"></path><path d="M31.25,19.349c-1.825.44-3.441,2.458-4.483,5.322A37.883,37.883,0,0,0,31.25,25Z" id="id_105" style="fill: rgb(20, 20, 166);"></path><path d="M41.66,40.3a22.784,22.784,0,0,0-2.9-.723,13.427,13.427,0,0,1-2.392,4.389A12.775,12.775,0,0,0,41.66,40.3Z" id="id_106" style="fill: rgb(16, 16, 163);"></path><path d="M32.75,37.5a39.871,39.871,0,0,1,4.943.384,22.446,22.446,0,0,0,.737-5.13H32.75Z" id="id_107" style="fill: rgb(16, 16, 161);"></path><path d="M44.712,32.75H39.93a24.149,24.149,0,0,1-.736,5.381,22.769,22.769,0,0,1,3.421.918A12.662,12.662,0,0,0,44.712,32.75Z" id="id_108" style="fill: rgb(14, 14, 158);"></path><path d="M32.75,31.25h5.68a22.446,22.446,0,0,0-.737-5.13,39.871,39.871,0,0,1-4.943.384Z" id="id_109" style="fill: rgb(12, 12, 156);"></path><path d="M32.75,19.349V25a38.529,38.529,0,0,0,4.483-.333C36.191,21.807,34.575,19.789,32.75,19.349Z" id="id_110" style="fill: rgb(11, 11, 150);"></path><path d="M42.615,24.951a22.769,22.769,0,0,1-3.421.918,24.149,24.149,0,0,1,.736,5.381h4.782A12.662,12.662,0,0,0,42.615,24.951Z" id="id_111" style="fill: rgb(11, 11, 153);"></path><path d="M41.66,23.7a12.775,12.775,0,0,0-5.292-3.666,13.427,13.427,0,0,1,2.392,4.389A22.784,22.784,0,0,0,41.66,23.7Z" id="id_112" style="fill: rgb(13, 13, 163);"></path><path d="M32.75,44.651c1.825-.44,3.441-2.458,4.483-5.322A38.529,38.529,0,0,0,32.75,39Z" id="id_113" style="fill: rgb(13, 13, 168);"></path><path d="M31.25,32.75H25.57a22.446,22.446,0,0,0,.737,5.13A39.871,39.871,0,0,1,31.25,37.5Z" id="id_114" style="fill: rgb(15, 15, 168);"></path><path d="M31.25,26.5a39.1,39.1,0,0,1-4.943-.384,22.463,22.463,0,0,0-.737,5.131h5.68Z" id="id_115" style="fill: rgb(15, 15, 166);"></path><path d="M31.25,44.651V39a38.529,38.529,0,0,0-4.483.333C27.809,42.193,29.425,44.211,31.25,44.651Z" id="id_116" style="fill: rgb(15, 15, 163);"></path><path d="M27.632,20.037A12.782,12.782,0,0,0,22.34,23.7a23.77,23.77,0,0,0,2.9.722A13.415,13.415,0,0,1,27.632,20.037Z" id="id_117" style="fill: rgb(13, 13, 163);"></path><path d="M27.632,43.963a13.427,13.427,0,0,1-2.392-4.389,22.784,22.784,0,0,0-2.9.723A12.775,12.775,0,0,0,27.632,43.963Z" id="id_118" style="fill: rgb(12, 12, 158);"></path><path d="M19.288,31.25H24.07a24.149,24.149,0,0,1,.737-5.382,23.159,23.159,0,0,1-3.422-.916A12.658,12.658,0,0,0,19.288,31.25Z" id="id_119" style="fill: rgb(12, 12, 153);"></path><path d="M24.806,38.131a24.149,24.149,0,0,1-.736-5.381H19.288a12.662,12.662,0,0,0,2.1,6.3A22.769,22.769,0,0,1,24.806,38.131Z" id="id_120" style="fill: rgb(12, 12, 150);"></path></svg>