<svg xmlns="http://www.w3.org/2000/svg" xml:space="preserve" width="7.11111in" height="7.11111in" version="1.1" style="shape-rendering:geometricPrecision; text-rendering:geometricPrecision; image-rendering:optimizeQuality; fill-rule:evenodd; clip-rule:evenodd" viewBox="0 0 7111 7111" xmlns:xlink="http://www.w3.org/1999/xlink">
 <defs>
  <style type="text/css">
   
    .fil0 {fill:black}
   
  </style>
 </defs>
 <g id="Layer_x0020_1">
  <metadata id="CorelCorpID_0Corel-Layer"></metadata>
  <g id="_403143456">
   <g>
    <g>
     <g>
      <path class="fil0" d="M6620 6611l-6129 0c-271,0 -485,-219 -485,-485l0 -5141c0,-272 219,-485 485,-485l6129 0c272,0 485,219 485,485l0 5141c6,266 -213,485 -485,485zm-6129 -5915c-156,0 -283,127 -283,283l0 5141c0,156 127,283 283,283l6129 0c156,0 283,-127 283,-283l0 -5141c0,-156 -127,-283 -283,-283l-6129 0z" id="id_101" style="fill: rgb(21, 24, 173);"></path>
     </g>
     <g>
      <path class="fil0" d="M7007 2140l-6903 0c-58,0 -104,-46 -104,-104 0,-57 46,-104 104,-104l6903 0c58,0 104,47 104,104 0,58 -46,104 -104,104z" id="id_102" style="fill: rgb(21, 23, 171);"></path>
     </g>
     <g>
      <path class="fil0" d="M1034 1407l-335 0c-58,0 -104,-47 -104,-104 0,-58 46,-104 104,-104l335 0c58,0 104,46 104,104 0,57 -46,104 -104,104z" id="id_103" style="fill: rgb(20, 23, 166);"></path>
     </g>
     <g>
      <path class="fil0" d="M1906 1407l-335 0c-58,0 -104,-47 -104,-104 0,-58 46,-104 104,-104l335 0c58,0 104,46 104,104 0,57 -46,104 -104,104z" id="id_104" style="fill: rgb(21, 23, 171);"></path>
     </g>
     <g>
      <path class="fil0" d="M2779 1407l-341 0c-58,0 -104,-47 -104,-104 0,-58 46,-104 104,-104l341 0c57,0 104,46 104,104 0,57 -47,104 -104,104z" id="id_105" style="fill: rgb(20, 23, 168);"></path>
     </g>
    </g>
    <g>
     <g>
      <path class="fil0" d="M3558 4711c-242,0 -439,-197 -439,-439 0,-243 197,-439 439,-439 87,0 168,23 232,69 34,23 46,58 46,98 34,-5 75,12 98,47 40,63 69,144 69,231 -6,236 -202,433 -445,433zm0 -676c-132,0 -236,104 -236,237 0,133 104,237 236,237 133,0 237,-104 237,-237 0,-46 -11,-87 -34,-121 -12,-24 -18,-47 -18,-70 -23,0 -46,0 -69,-17 -29,-17 -69,-29 -116,-29z" id="id_106" style="fill: rgb(18, 21, 166);"></path>
     </g>
     <g>
      <path class="fil0" d="M3558 5167c-491,0 -889,-404 -889,-895 0,-491 398,-890 889,-890 162,0 324,46 463,127 46,29 63,93 34,139 -29,46 -92,64 -138,35 -110,-64 -237,-99 -359,-99 -381,0 -687,312 -687,688 0,381 312,693 687,693 122,0 243,-35 347,-92 46,-29 110,-12 139,40 29,46 11,110 -41,139 -133,75 -289,115 -445,115zm636 -323c-23,0 -41,-6 -58,-18 -46,-34 -58,-98 -23,-138 87,-122 133,-266 133,-416 0,-127 -35,-249 -98,-358 -29,-46 -12,-110 34,-139 47,-29 110,-11 139,35 81,138 127,300 127,462 0,191 -58,375 -173,531 -18,29 -52,41 -81,41z" id="id_107" style="fill: rgb(18, 20, 161);"></path>
     </g>
     <g>
      <path class="fil0" d="M3558 5618c-745,0 -1346,-607 -1346,-1346 0,-214 52,-433 156,-630 24,-52 87,-69 139,-40 52,23 69,86 41,138 -87,168 -133,353 -133,538 0,629 514,1143 1143,1143 630,0 1144,-514 1144,-1143 0,-208 -58,-416 -167,-590 -29,-46 -18,-109 34,-138 47,-29 110,-18 139,34 127,208 196,451 196,699 0,734 -600,1335 -1346,1335zm-918 -2086c-23,0 -46,-11 -69,-28 -41,-41 -47,-104 -6,-145 260,-283 612,-439 993,-439 249,0 491,69 699,197 47,28 64,92 35,138 -29,46 -92,64 -139,35 -184,-110 -381,-168 -595,-168 -323,0 -623,133 -843,376 -23,23 -46,34 -75,34z" id="id_108" style="fill: rgb(16, 18, 161);"></path>
     </g>
     <g>
      <path class="fil0" d="M3558 6074c-294,0 -577,-69 -843,-208 -52,-23 -69,-86 -46,-138 23,-52 86,-70 138,-47 237,122 491,185 751,185 884,0 1601,-716 1601,-1600 0,-295 -81,-583 -237,-832 -29,-46 -12,-110 34,-138 47,-29 110,-12 139,34 173,283 266,607 266,936 0,999 -809,1808 -1803,1808zm-1062 -370c-24,0 -47,-5 -64,-23 -433,-346 -676,-860 -676,-1409 0,-994 809,-1802 1802,-1802 335,0 659,92 936,265 46,29 64,93 35,139 -29,46 -92,63 -139,35 -248,-156 -531,-237 -826,-237 -884,0 -1600,716 -1600,1600 0,491 220,947 601,1253 46,35 52,99 17,145 -23,17 -58,34 -86,34z" id="id_109" style="fill: rgb(14, 16, 150);"></path>
     </g>
     <g>
      <path class="fil0" d="M3558 6074c-57,0 -104,-46 -104,-104l0 -1363c0,-58 47,-104 104,-104 58,0 104,46 104,104l0 1363c-5,58 -46,104 -104,104zm0 -2039c-57,0 -104,-46 -104,-104l0 -1363c0,-58 47,-104 104,-104 58,0 104,46 104,104l0 1363c-5,58 -46,104 -104,104z" id="id_110" style="fill: rgb(9, 12, 156);"></path>
     </g>
     <g>
      <path class="fil0" d="M5257 4370l-1364 0c-57,0 -103,-46 -103,-104 0,-58 46,-104 103,-104l1364 0c58,0 104,46 104,104 0,58 -46,104 -104,104zm-2034 0l-1369 0c-57,0 -104,-46 -104,-104 0,-58 47,-104 104,-104l1364 0c57,0 104,46 104,104 0,58 -47,104 -99,104z" id="id_111" style="fill: rgb(9, 12, 161);"></path>
     </g>
     <g>
      <path class="fil0" d="M3558 4370c-28,0 -52,-11 -69,-29 -35,-34 -40,-86 -17,-121l884 -1450c29,-46 92,-64 138,-35 46,29 64,93 35,139l-670 1097 1103 -670c46,-28 110,-11 139,35 29,46 11,110 -35,139l-1456 884c-17,5 -34,11 -52,11z" id="id_112" style="fill: rgb(12, 14, 166);"></path>
     </g>
     <g>
      <path class="fil0" d="M2542 3816c-145,0 -260,-116 -260,-260 0,-145 115,-260 260,-260 144,0 260,115 260,260 0,144 -122,260 -260,260zm0 -318c-29,0 -58,23 -58,58 0,34 23,57 58,57 34,0 58,-23 58,-57 0,-35 -29,-58 -58,-58z" id="id_113" style="fill: rgb(0, 0, 0);"></path>
     </g>
     <g>
      <path class="fil0" d="M4084 5121c-144,0 -260,-115 -260,-260 0,-144 116,-260 260,-260 145,0 260,116 260,260 0,145 -115,260 -260,260zm0 -318c-29,0 -58,23 -58,58 0,35 23,58 58,58 35,0 58,-23 58,-58 0,-35 -23,-58 -58,-58z" id="id_114"></path>
     </g>
     <g>
      <path class="fil0" d="M2628 5953c-144,0 -265,-116 -265,-260 0,-144 115,-260 265,-260 145,0 260,116 260,260 0,144 -121,260 -260,260zm0 -318c-34,0 -63,23 -63,58 0,35 29,58 63,58 29,0 58,-23 58,-58 0,-29 -29,-58 -58,-58z" id="id_115"></path>
     </g>
    </g>
   </g>
  </g>
 </g>
</svg>